<svg xmlns="http://www.w3.org/2000/svg" viewBox="0 0 64 64" width="64" height="64">
  <defs>
    <linearGradient id="moodGradient" x1="0%" y1="0%" x2="100%" y2="100%">
      <stop offset="0%" style="stop-color:#667eea;stop-opacity:1" />
      <stop offset="100%" style="stop-color:#764ba2;stop-opacity:1" />
    </linearGradient>
  </defs>

  <!-- Background circle -->
  <circle cx="32" cy="32" r="30" fill="url(#moodGradient)" stroke="#fff" stroke-width="2"/>

  <!-- Brain/Mind symbol -->
  <path d="M20 28 C18 22, 25 18, 30 22 C35 18, 42 22, 40 28 C42 30, 42 36, 38 38 C35 42, 29 42, 26 38 C22 36, 22 30, 20 28" fill="#fff" opacity="0.9"/>

  <!-- Heart symbol for emotions -->
  <path d="M28 35 C26 33, 26 31, 28 31 C30 29, 32 29, 32 31 C32 29, 34 29, 36 31 C38 31, 38 33, 36 35 C34 37, 32 39, 32 39 C32 39, 30 37, 28 35" fill="#fff" opacity="0.8"/>

  <!-- Analytics dots -->
  <circle cx="22" cy="45" r="2" fill="#fff" opacity="0.7"/>
  <circle cx="28" cy="47" r="2" fill="#fff" opacity="0.8"/>
  <circle cx="34" cy="45" r="2" fill="#fff" opacity="0.9"/>
  <circle cx="40" cy="47" r="2" fill="#fff" opacity="0.7"/>
</svg>